HIERARCHY
ROOT Hips
{
	OFFSET 0.00000 0.00000 0.00000
	CHANNELS 6 Xposition Yposition Zposition Zrotation Yrotation Xrotation 
	JOINT LHipJoint
	{
		OFFSET 0 0 0
		CHANNELS 3 Zrotation Yrotation Xrotation
		JOINT LeftHip
		{
			OFFSET 1.34019 -1.87553 0.90315
			CHANNELS 3 Zrotation Yrotation Xrotation
			JOINT LeftKnee
			{
				OFFSET 2.55316 -7.01474 0.00000
				CHANNELS 3 Zrotation Yrotation Xrotation
				JOINT LeftAnkle
				{
					OFFSET 2.64657 -7.27139 0.00000
					CHANNELS 3 Zrotation Yrotation Xrotation
					JOINT LeftToe
					{
						OFFSET 0.24207 -0.66507 2.14489
						CHANNELS 3 Zrotation Yrotation Xrotation
						End Site
						{
							OFFSET 0.00000 -0.00000 1.12451
						}
					}
				}
			}
		}
	}
	JOINT RHipJoint
	{
		OFFSET 0 0 0
		CHANNELS 3 Zrotation Yrotation Xrotation
		JOINT RightHip
		{
			OFFSET -1.28320 -1.87553 0.90315
			CHANNELS 3 Zrotation Yrotation Xrotation
			JOINT RightKnee
			{
				OFFSET -2.60484 -7.15674 0.00000
				CHANNELS 3 Zrotation Yrotation Xrotation
				JOINT RightAnkle
				{
					OFFSET -2.60296 -7.15159 0.00000
					CHANNELS 3 Zrotation Yrotation Xrotation
					JOINT RightToe
					{
						OFFSET -0.31082 -0.85398 2.28998
						CHANNELS 3 Zrotation Yrotation Xrotation
						End Site
						{
							OFFSET -0.00000 -0.00000 1.21611
						}
					}
				}
			}
		}
	}
	JOINT lowerback
	{
		OFFSET 0 0 0
		CHANNELS 3 Zrotation Yrotation Xrotation
		JOINT Chest
		{
			OFFSET -0.00160 2.05581 -0.15156
			CHANNELS 3 Zrotation Yrotation Xrotation
			JOINT Chest2
			{
				OFFSET 0.04594 2.06326 -0.01617
				CHANNELS 3 Zrotation Yrotation Xrotation
				JOINT lowerneck
				{
					OFFSET 0 0 0
					CHANNELS 3 Zrotation Yrotation Xrotation
					JOINT Neck
					{
						OFFSET 0.03753 1.73883 0.26751
						CHANNELS 3 Zrotation Yrotation Xrotation
						JOINT Head
						{
							OFFSET -0.09795 1.76129 -0.31794
							CHANNELS 3 Zrotation Yrotation Xrotation
							End Site
							{
								OFFSET -0.03611 1.79987 -0.13846
							}
						}
					}
				}
				JOINT LeftCollar
				{
					OFFSET 0 0 0
					CHANNELS 3 Zrotation Yrotation Xrotation
					JOINT LeftShoulder
					{
						OFFSET 3.30667 1.29205 -0.22445
CHANNELS 3 Zrotation Xrotation Yrotation
						JOINT LeftElbow
						{
OFFSET 0 -4.927850 -0.000000
CHANNELS 3 Zrotation Xrotation Yrotation
							JOINT LeftWrist
							{
OFFSET 0 -3.440520 0.000000
CHANNELS 3 Zrotation Xrotation Yrotation
								JOINT lhand
								{
									OFFSET 0 0 0
CHANNELS 3 Zrotation Xrotation Yrotation
									JOINT LFingers
									{
OFFSET 0 -0.654330 0.000000
CHANNELS 3 Zrotation Xrotation Yrotation
										End Site
										{
OFFSET 0 -0.527530 0.000000
										}
									}
								}
								JOINT LThumb
								{
OFFSET 0 0.000000 0.000000
CHANNELS 3 Zrotation Xrotation Yrotation
									End Site
									{
OFFSET 0 -0.535590 0.535590
									}
								}
							}
						}
					}
				}
				JOINT RightCollar
				{
					OFFSET 0 0 0
					CHANNELS 3 Zrotation Yrotation Xrotation
					JOINT RightShoulder
					{
						OFFSET -3.20032 1.49783 -0.27688
CHANNELS 3 Zrotation Xrotation Yrotation
						JOINT RightElbow
						{
OFFSET 0 -5.091810 -0.000000
CHANNELS 3 Zrotation Xrotation Yrotation
							JOINT RightWrist
							{
OFFSET 0 -3.498650 -0.000000
CHANNELS 3 Zrotation Xrotation Yrotation
								JOINT rhand
								{
									OFFSET 0 0 0
CHANNELS 3 Zrotation Xrotation Yrotation
									JOINT RFingers
									{
OFFSET 0 -0.666410 0.000000
CHANNELS 3 Zrotation Xrotation Yrotation
										End Site
										{
OFFSET 0 -0.537280 0.000000
										}
									}
								}
								JOINT RThumb
								{
OFFSET 0 0.000000 0.000000
CHANNELS 3 Zrotation Xrotation Yrotation
									End Site
									{
OFFSET 0 -0.545480 0.545480
									}
								}
							}
						}
					}
				}
			}
		}
	}
}
MOTION
Frames: 11
Frame Time: 0.008333333333333333
2.238100 17.811800 -29.313400 1.126800 2.639200 0.484600 0.000000 0.000000 0.000000 -28.222500 0.278800 -5.850400 1.548000 7.853200 22.269100 0.421200 5.346900 -15.391100 0.058600 -1.562100 -4.296900 0.000000 0.000000 0.000000 7.575600 1.326400 -16.483700 -15.556800 -19.519900 76.908400 -0.339200 -8.435200 11.147200 -0.167300 2.635500 -7.265400 -6.273300 -0.162200 7.601500 2.805500 -0.626600 1.789700 6.536900 -0.280400 -2.302500 6.209400 -4.680900 -18.606400 -5.271400 -7.118400 25.152800 -3.958200 -3.319100 10.727300 -0.000000 0.000000 0.000000 8.010300 4.152000 -27.140600 17.387800 -27.366200 4.264100 14.290500 -9.223300 2.429600 0.000000 0.000000 0.000000 -7.125000 0.000000 0.000000 -9.425400 27.435600 -4.073700 -0.000000 0.000000 0.000000 -6.638400 8.962200 12.282000 -18.655800 -28.988700 -4.862900 -17.044500 -7.748500 1.050900 0.000000 0.000000 0.000000 7.125000 0.000000 -0.000000 7.577200 31.026800 2.607700
2.236782 17.812217 -29.314380 1.127495 2.665579 0.485912 0.000000 0.000000 0.000000 -28.209684 0.301558 -5.856420 1.546965 7.850712 22.261597 0.423057 5.299490 -15.376923 0.056879 -1.538434 -4.231580 0.000000 0.000000 0.000000 7.555233 1.347811 -16.519484 -15.569609 -19.522758 76.946547 -0.372441 -8.433019 11.561228 -0.099939 2.038777 -5.612785 -6.311158 -0.170708 7.637611 2.809450 -0.642882 1.785013 6.565144 -0.287327 -2.324319 6.266606 -4.516004 -18.650139 -5.232785 -6.919507 25.361256 -3.940366 -3.211228 10.827167 0.000000 0.000000 0.000000 7.990748 4.103619 -27.066055 17.387986 -27.366377 4.264156 14.313708 -9.120134 2.760839 0.000000 0.000000 0.000000 -7.125000 0.000000 0.000000 -9.381953 27.098196 -4.129995 0.000000 0.000000 0.000000 -6.621267 8.860767 12.149881 -18.523759 -28.822649 -4.799080 -17.066045 -7.577320 1.273914 0.000000 0.000000 0.000000 7.125000 0.000000 0.000000 7.579859 31.258396 2.566177
2.235945 17.813376 -29.314142 1.120918 2.689109 0.488767 0.000000 0.000000 0.000000 -28.191890 0.323458 -5.856361 1.545009 7.846082 22.247466 0.421276 5.277736 -15.336708 0.053752 -1.495991 -4.114648 0.000000 0.000000 0.000000 7.536905 1.367341 -16.550929 -15.575337 -19.523991 76.963771 -0.367669 -8.423501 11.500115 -0.108314 2.116156 -5.826992 -6.315820 -0.146027 7.628614 2.793937 -0.609995 1.805304 6.547869 -0.272301 -2.303457 6.348526 -4.396335 -18.691346 -5.170682 -6.798316 25.545064 -3.926377 -3.133945 10.912574 0.000000 0.000000 0.000000 8.022263 3.988659 -27.110946 17.414027 -27.400364 4.276155 14.114980 -9.181116 2.680583 0.000000 0.000000 0.000000 -7.125000 0.000000 0.000000 -9.539140 27.181156 -4.182037 0.000000 0.000000 0.000000 -6.585245 8.889142 12.131043 -18.527193 -28.826962 -4.800715 -17.140506 -7.710224 1.403792 0.000000 0.000000 0.000000 7.125000 0.000000 0.000000 7.532317 31.394452 2.524945
2.234986 17.814155 -29.313841 1.117514 2.702542 0.500346 0.000000 0.000000 0.000000 -28.179313 0.338260 -5.863118 1.542977 7.841063 22.232290 0.427118 5.208042 -15.358750 0.056955 -1.540282 -4.236825 0.000000 0.000000 0.000000 7.504452 1.391960 -16.593161 -15.582832 -19.525609 76.986197 -0.360582 -8.489439 11.431851 -0.132410 2.345513 -6.461601 -6.365212 -0.162867 7.630092 2.830240 -0.635447 1.809317 6.617351 -0.285251 -2.294754 6.309592 -4.217452 -18.771973 -5.104805 -6.561782 25.940122 -3.887771 -3.009175 11.098271 0.000000 0.000000 0.000000 7.922306 3.933263 -26.988483 17.428065 -27.418607 4.282610 13.964147 -9.096643 2.586959 0.000000 0.000000 0.000000 -7.125000 0.000000 0.000000 -9.661197 27.277137 -4.214966 0.000000 0.000000 0.000000 -6.686459 8.909094 12.202445 -18.480400 -28.767922 -4.778180 -17.159748 -7.790147 1.176910 0.000000 0.000000 0.000000 7.125000 0.000000 0.000000 7.496938 31.159442 2.555605
2.234227 17.814873 -29.313564 1.119140 2.724120 0.505052 0.000000 0.000000 0.000000 -28.174772 0.345322 -5.859463 1.540939 7.836184 22.217496 0.430306 5.165045 -15.366765 0.057752 -1.550340 -4.264566 0.000000 0.000000 0.000000 7.463812 1.400125 -16.627830 -15.589176 -19.527046 77.005229 -0.358845 -8.528730 11.421795 -0.144077 2.445544 -6.738750 -6.467626 -0.263320 7.656927 2.939078 -0.776174 1.790368 6.806208 -0.354223 -2.303477 6.398119 -3.867357 -18.910047 -5.296318 -6.052557 26.309005 -3.927837 -2.783334 11.289459 0.000000 0.000000 0.000000 7.632623 3.986183 -26.584363 17.449980 -27.447199 4.292689 13.841693 -9.001023 2.585121 0.000000 0.000000 0.000000 -7.125000 0.000000 0.000000 -9.754438 27.279573 -4.256149 0.000000 0.000000 0.000000 -6.989087 8.903361 12.542674 -18.414452 -28.684599 -4.746543 -17.194479 -7.878322 1.017415 0.000000 0.000000 0.000000 7.125000 0.000000 0.000000 7.455584 30.994575 2.570977
2.233608 17.815591 -29.313106 1.123834 2.748093 0.511022 0.000000 0.000000 0.000000 -28.177844 0.345902 -5.852889 1.538827 7.831066 22.202000 0.433461 5.131700 -15.382787 0.058786 -1.564314 -4.302988 0.000000 0.000000 0.000000 7.414339 1.397357 -16.664633 -15.594831 -19.528285 77.022291 -0.359483 -8.545735 11.434745 -0.155760 2.542843 -7.008492 -6.563292 -0.360066 7.687709 3.040517 -0.911969 1.765129 6.983260 -0.420160 -2.320972 6.491901 -3.529664 -19.026576 -5.491792 -5.557368 26.689325 -3.971143 -2.564760 11.482773 0.000000 0.000000 0.000000 7.357387 4.046705 -26.205893 17.467093 -27.469431 4.300604 13.733327 -8.903643 2.619476 0.000000 0.000000 0.000000 -7.125000 0.000000 0.000000 -9.833935 27.245226 -4.299943 0.000000 0.000000 0.000000 -7.267095 8.886955 12.834655 -18.340853 -28.591407 -4.711257 -17.220790 -7.924324 0.839634 0.000000 0.000000 0.000000 7.125000 0.000000 0.000000 7.419634 30.810514 2.591437
2.233127 17.816191 -29.312236 1.127063 2.774703 0.516974 0.000000 0.000000 0.000000 -28.183619 0.326205 -5.838234 1.536591 7.825554 22.185444 0.433800 5.134321 -15.388337 0.058782 -1.564963 -4.304909 0.000000 0.000000 0.000000 7.364067 1.383362 -16.701578 -15.599610 -19.529264 77.036493 -0.361391 -8.528559 11.453445 -0.165583 2.621258 -7.226163 -6.612781 -0.399933 7.716475 3.085879 -0.969886 1.741889 7.066742 -0.446916 -2.349731 6.558065 -3.313337 -19.072914 -5.581419 -5.249908 27.033455 -3.991534 -2.421384 11.642215 0.000000 0.000000 0.000000 7.226823 4.063348 -26.048267 17.475409 -27.480282 4.304446 13.636160 -8.846107 2.695299 0.000000 0.000000 0.000000 -7.125000 0.000000 0.000000 -9.901581 27.168846 -4.348388 0.000000 0.000000 0.000000 -7.379963 8.878955 12.904050 -18.280131 -28.514357 -4.682170 -17.244893 -7.911520 0.727110 0.000000 0.000000 0.000000 7.125000 0.000000 0.000000 7.391234 30.693983 2.602146
2.232648 17.816752 -29.311083 1.122438 2.800241 0.525618 0.000000 0.000000 0.000000 -28.183491 0.290898 -5.822749 1.534707 7.820987 22.171586 0.431953 5.163797 -15.387960 0.058511 -1.561361 -4.294789 0.000000 0.000000 0.000000 7.322289 1.367663 -16.741671 -15.604164 -19.530265 77.049993 -0.363126 -8.488004 11.463186 -0.174841 2.693815 -7.427438 -6.594917 -0.353365 7.728254 3.051836 -0.908056 1.732949 7.014734 -0.414637 -2.377092 6.555512 -3.276617 -19.025545 -5.478763 -5.225550 27.308165 -3.960967 -2.388728 11.745398 0.000000 0.000000 0.000000 7.306642 3.995274 -26.211329 17.475815 -27.480712 4.304645 13.538872 -8.839457 2.755811 0.000000 0.000000 0.000000 -7.125000 0.000000 0.000000 -9.970377 27.108089 -4.393926 0.000000 0.000000 0.000000 -7.260161 8.889621 12.667913 -18.246033 -28.471028 -4.665968 -17.258715 -7.841785 0.681641 0.000000 0.000000 0.000000 7.125000 0.000000 0.000000 7.376450 30.646965 2.605235
2.232112 17.817230 -29.309709 1.106809 2.821873 0.534144 0.000000 0.000000 0.000000 -28.173288 0.246465 -5.808292 1.533727 7.818597 22.164406 0.428615 5.216216 -15.384506 0.058315 -1.558294 -4.286410 0.000000 0.000000 0.000000 7.294533 1.354083 -16.780800 -15.608416 -19.531161 77.062690 -0.366567 -8.445936 11.493155 -0.176552 2.706624 -7.463030 -6.537140 -0.264105 7.729994 2.981957 -0.786426 1.732801 6.895526 -0.353119 -2.400888 6.523212 -3.325871 -18.931131 -5.285562 -5.338044 27.519330 -3.905748 -2.410090 11.809123 0.000000 0.000000 0.000000 7.486345 3.885395 -26.535718 17.474949 -27.479579 4.304188 13.449183 -8.868098 2.787509 0.000000 0.000000 0.000000 -7.125000 0.000000 0.000000 -10.035792 27.076449 -4.431209 0.000000 0.000000 0.000000 -7.032747 8.912319 12.297635 -18.232720 -28.454114 -4.659618 -17.265361 -7.752067 0.667257 0.000000 0.000000 0.000000 7.125000 0.000000 0.000000 7.370066 30.632112 2.605549
2.231436 17.817709 -29.308272 1.078035 2.839058 0.540610 0.000000 0.000000 0.000000 -28.150113 0.199423 -5.797626 1.534373 7.820155 22.169243 0.424981 5.280390 -15.387797 0.058941 -1.566057 -4.307792 0.000000 0.000000 0.000000 7.284968 1.343771 -16.817775 -15.611987 -19.531964 77.073361 -0.370592 -8.418305 11.534469 -0.176241 2.704088 -7.455920 -6.437978 -0.134495 7.725844 2.877905 -0.608230 1.745640 6.710296 -0.264340 -2.417539 6.461144 -3.455345 -18.821010 -5.006662 -5.580621 27.689741 -3.829070 -2.482263 11.849575 0.000000 0.000000 0.000000 7.759696 3.727711 -27.008138 17.474495 -27.479063 4.304014 13.370958 -8.926040 2.778164 0.000000 0.000000 0.000000 -7.125000 0.000000 0.000000 -10.095752 27.086377 -4.456072 0.000000 0.000000 0.000000 -6.707280 8.949013 11.813443 -18.244745 -28.469410 -4.665325 -17.266172 -7.669885 0.643595 0.000000 0.000000 0.000000 7.125000 0.000000 0.000000 7.367504 30.607577 2.608960
2.230621 17.818091 -29.306933 1.040662 2.851412 0.544610 0.000000 0.000000 0.000000 -28.118029 0.157328 -5.794930 1.537122 7.826714 22.189135 0.421778 5.345568 -15.397148 0.060070 -1.582067 -4.351907 0.000000 0.000000 0.000000 7.289347 1.339381 -16.852053 -15.614637 -19.532488 77.081408 -0.375089 -8.405752 11.586396 -0.176676 2.707223 -7.464801 -6.396019 -0.096704 7.721211 2.864899 -0.554472 1.760833 6.666887 -0.238507 -2.408664 6.451253 -3.410365 -18.799309 -4.928159 -5.537310 27.881633 -3.800285 -2.446950 11.927306 0.000000 0.000000 0.000000 7.807473 3.645881 -27.146176 17.488749 -27.497614 4.310593 13.308396 -8.927064 2.742562 0.000000 0.000000 0.000000 -7.125000 0.000000 0.000000 -10.146280 27.122720 -4.470184 0.000000 0.000000 0.000000 -6.640883 8.959628 11.698697 -18.266650 -28.497300 -4.675739 -17.261244 -7.663824 0.623857 0.000000 0.000000 0.000000 7.125000 0.000000 0.000000 7.369822 30.586978 2.613486
